<svg width="42" height="59" xmlns="http://www.w3.org/2000/svg" xmlns:xlink="http://www.w3.org/1999/xlink" xml:space="preserve" overflow="hidden"><defs><clipPath id="clip0"><rect x="150" y="338" width="42" height="59"/></clipPath></defs><g clip-path="url(#clip0)" transform="translate(-150 -338)"><path d="M49.3205 4.49536C49.3205 4.49536 49.3205 4.49536 49.3205 4.49536 48.6141 3.78895 47.5866 3.33941 46.4949 3.33941L16.1191 3.33941C13.9356 3.33941 12.1375 5.13755 12.1375 7.32102L12.1375 55.4214C12.1375 56.4489 12.5228 57.4122 13.2292 58.1186 13.2292 58.1186 13.2934 58.1828 13.2934 58.1828 13.3576 58.247 13.4861 58.3755 13.6787 58.5039 14.5778 59.2745 16.6328 60.88 18.2383 60.88L44.3114 60.88C48.2288 60.88 52.6599 56.4489 52.6599 52.5315L52.6599 9.44026C52.5957 7.2568 50.0269 5.00912 49.3205 4.49536ZM47.9719 51.0545C47.9719 54.2654 45.4031 56.8342 42.1922 56.8342L16.1191 56.8342C15.798 56.8342 15.4769 56.7058 15.22 56.5131 15.1558 56.4489 15.0916 56.3847 15.0273 56.3204 15.0273 56.3204 15.0273 56.3204 14.9631 56.3204 14.7705 56.0636 14.642 55.7425 14.642 55.3572L14.642 7.32102C14.642 6.55038 15.2842 5.84397 16.1191 5.84397L46.4949 5.84397C46.9444 5.84397 47.3297 6.03663 47.5866 6.35772 47.7793 6.6146 47.9077 6.9357 47.9077 7.32102L47.9077 51.0545Z" fill="#FFFFFF" transform="matrix(1.00402 0 0 1 138.448 335.32)"/><path d="M43.605 7.83477 18.2383 7.83477C17.275 7.83477 16.4402 8.6054 16.4402 9.63291L16.4402 29.2198C16.4402 30.2474 17.275 31.1464 18.3668 31.1464L40.4582 31.1464C43.3481 31.1464 45.66 28.8345 45.66 25.9447L45.66 9.88979C45.66 8.73384 44.6967 7.83477 43.605 7.83477ZM19.6511 16.2475 19.6511 16.2475C19.6511 16.376 19.5869 16.4402 19.5227 16.5044 19.3943 16.6328 19.2658 16.6971 19.0732 16.6971 19.0732 16.6971 19.0732 16.6971 19.0732 16.6971 19.009 16.6971 18.8805 16.6971 18.8163 16.6328 18.7521 16.6328 18.6879 16.5686 18.6236 16.5044 18.4952 16.376 18.431 16.2475 18.431 16.0549 18.431 15.8622 18.4952 15.7338 18.6236 15.6053 18.6879 15.5411 18.7521 15.5411 18.8163 15.4769 18.8805 15.4769 19.009 15.4127 19.0732 15.4127 19.2658 15.4127 19.3943 15.4769 19.5227 15.6053 19.5869 15.6695 19.6511 15.7338 19.6511 15.8622 19.6511 15.9264 19.7154 15.9906 19.7154 16.0549 19.6511 16.1191 19.6511 16.2475 19.6511 16.2475ZM40.1371 26.9722C40.1371 27.1006 40.0729 27.1648 39.9445 27.1648L22.1557 27.1648 22.1557 11.6879 40.1371 11.6879 40.1371 26.9722Z" fill="#FFFFFF" transform="matrix(1.00402 0 0 1 138.448 335.32)"/><path d="M27.1006 39.4307C27.1006 38.4032 26.2657 37.5042 25.2382 37.5042L23.5685 37.5042 23.5685 35.8344C23.5685 34.8069 22.7337 33.9721 21.7062 33.9721 20.6787 33.9721 19.8438 34.8069 19.8438 35.8344L19.8438 37.5042 18.1741 37.5042C17.1466 37.5042 16.3117 38.339 16.3117 39.4307 16.3117 40.4582 17.1466 41.2931 18.1741 41.2931L19.8438 41.2931 19.8438 42.9628C19.8438 43.9903 20.6787 44.8894 21.7062 44.8894 22.7337 44.8894 23.5685 44.0545 23.5685 42.9628L23.5685 41.2931 25.2382 41.2931C26.2015 41.2931 27.1006 40.4582 27.1006 39.4307Z" fill="#FFFFFF" transform="matrix(1.00402 0 0 1 138.448 335.32)"/><path d="M37.5684 39.1739C36.4766 39.1739 35.5776 40.0729 35.5776 41.1647 35.5776 42.2564 36.4766 43.1555 37.5684 43.1555 38.6601 43.1555 39.5592 42.2564 39.5592 41.1647 39.5592 40.0729 38.6601 39.1739 37.5684 39.1739Z" fill="#FFFFFF" transform="matrix(1.00402 0 0 1 138.448 335.32)"/><path d="M42.9628 37.4399C41.8711 37.4399 40.972 38.339 40.972 39.4307 40.972 40.5225 41.8711 41.4215 42.9628 41.4215 44.0545 41.4215 44.9536 40.5225 44.9536 39.4307 44.9536 38.339 44.0545 37.4399 42.9628 37.4399Z" fill="#FFFFFF" transform="matrix(1.00402 0 0 1 138.448 335.32)"/><path d="M28.5134 48.3572 26.2015 49.2563C25.5593 49.5132 25.2382 50.2196 25.4951 50.8618 25.6878 51.3755 26.1373 51.6324 26.6511 51.6324 26.7795 51.6324 26.9722 51.6324 27.1006 51.5682L29.4125 50.6691C30.0547 50.4123 30.3758 49.7058 30.1189 48.9994 29.862 48.4215 29.1556 48.1004 28.5134 48.3572Z" fill="#FFFFFF" transform="matrix(1.00402 0 0 1 138.448 335.32)"/><path d="M35.0638 48.3572 32.7519 49.2563C32.1097 49.5132 31.7886 50.2196 32.0455 50.926 32.2382 51.4398 32.6877 51.6966 33.2014 51.6966 33.3299 51.6966 33.5225 51.6966 33.651 51.6324L35.9629 50.7334C36.6051 50.4765 36.9262 49.7058 36.6693 49.0636 36.4766 48.4215 35.706 48.1004 35.0638 48.3572Z" fill="#FFFFFF" transform="matrix(1.00402 0 0 1 138.448 335.32)"/><text fill="#FFFFFF" font-family="Arial,Arial_MSFontService,sans-serif" font-weight="700" font-size="5" transform="matrix(0.644775 0 0 0.642194 138.448 409)">Created by HeadsOfBirds</text><text fill="#FFFFFF" font-family="Arial,Arial_MSFontService,sans-serif" font-weight="700" font-size="5" transform="matrix(0.644775 0 0 0.642194 138.448 412)">from the Noun Project</text></g></svg>